<?xml version="1.0" encoding="UTF-8"?>
<svg xmlns="http://www.w3.org/2000/svg" xmlns:xlink="http://www.w3.org/1999/xlink" width="0" height="0">
<symbol id="Vector" width="25" height="27" viewBox="0 0 18 20" ><path d="M0 12.1543C0.00600975 14.233 0.924346 16.2251 2.55434 17.6952C4.18433 19.1653 6.39345 19.9939 8.69898 20C11.004 19.9939 13.2127 19.1657 14.8426 17.6961C16.4725 16.2265 17.3912 14.2351 17.398 12.1569V0.693848C17.398 0.693848 0 2.44219 0 12.1543ZM8.69898 14.2082C8.24844 14.2082 7.80802 14.0877 7.43341 13.862C7.0588 13.6364 6.76683 13.3156 6.59441 12.9403C6.422 12.565 6.37689 12.152 6.46479 11.7536C6.55268 11.3552 6.76964 10.9893 7.08822 10.702C7.40679 10.4148 7.81269 10.2192 8.25457 10.1399C8.69645 10.0607 9.15448 10.1014 9.57072 10.2568C9.98696 10.4123 10.3427 10.6755 10.593 11.0133C10.8433 11.351 10.9769 11.7481 10.9769 12.1543C10.9781 12.4247 10.92 12.6926 10.806 12.9427C10.692 13.1927 10.5244 13.4201 10.3128 13.6116C10.1011 13.8031 9.84963 13.9551 9.5727 14.0588C9.29576 14.1625 8.99885 14.2159 8.69898 14.2159V14.2082Z"/></symbol><symbol id="Vector (1)" width="10" height="9" viewBox="0 0 10 9" ><path d="M5.07819 0.517944H5.07534C2.68969 0.517944 0.755737 2.26156 0.755737 4.41241V4.41498C0.755737 6.56583 2.68969 8.30944 5.07534 8.30944H5.07819C7.46384 8.30944 9.39779 6.56583 9.39779 4.41498V4.41241C9.39779 2.26156 7.46384 0.517944 5.07819 0.517944Z"/></symbol><symbol id="Vector (2)" width="26" height="28" viewBox="0 0 26 28" ><path d="M25.9614 11.273C25.9547 8.2855 24.6356 5.42211 22.2929 3.30942C19.9502 1.19673 16.7746 0.00678345 13.4611 0V0C10.1466 0.00542712 6.96961 1.19477 4.62566 3.30761C2.28171 5.42045 0.961852 8.28461 0.955078 11.273V27.7472C0.955078 27.7472 25.9586 25.2364 25.9614 11.2755V11.273Z"/></symbol></svg>